<?xml version="1.0" standalone="no"?>
<!DOCTYPE svg PUBLIC "-//W3C//DTD SVG 20010904//EN"
 "http://www.w3.org/TR/2001/REC-SVG-20010904/DTD/svg10.dtd">
<svg version="1.0" xmlns="http://www.w3.org/2000/svg"
 width="375.000000pt" height="375.000000pt" viewBox="0 0 375.000000 375.000000"
 preserveAspectRatio="xMidYMid meet">
<metadata>
Created by potrace 1.14, written by Peter Selinger 2001-2017
</metadata>
<g transform="translate(0.000000,375.000000) scale(0.100000,-0.100000)"
fill="#000000" stroke="none">
<path d="M1649 3730 c-53 -4 -112 -12 -130 -18 -19 -6 -51 -13 -73 -17 -166
-28 -478 -166 -631 -280 -38 -28 -90 -66 -114 -83 -67 -48 -197 -176 -227
-224 -14 -24 -52 -70 -84 -103 -57 -59 -159 -222 -219 -348 -40 -86 -91 -235
-91 -268 0 -14 -9 -52 -21 -85 -78 -217 -80 -609 -5 -869 8 -27 24 -84 36
-125 12 -41 32 -95 46 -120 13 -25 35 -70 49 -100 40 -89 122 -230 182 -308
49 -67 79 -102 178 -213 45 -50 245 -215 306 -253 149 -90 202 -119 290 -154
112 -46 200 -73 374 -115 154 -38 430 -46 620 -18 183 26 527 143 635 215 19
13 67 42 107 65 83 48 191 138 312 261 86 88 171 186 171 199 0 4 9 17 20 29
43 46 98 136 155 255 38 80 68 129 82 135 14 7 20 17 17 29 -3 10 6 54 20 98
47 150 68 281 76 470 4 99 11 190 15 201 4 13 2 25 -4 28 -8 5 -8 13 -1 26 8
15 5 36 -10 82 -11 34 -20 77 -20 97 0 20 -6 56 -14 81 -46 143 -56 180 -56
214 0 25 -7 43 -19 54 -11 10 -45 67 -75 127 -54 108 -84 153 -216 331 -122
165 -247 282 -451 422 -26 17 -93 54 -150 82 -57 28 -120 59 -139 70 -45 23
-166 63 -255 84 -38 9 -86 21 -106 26 -95 26 -378 35 -580 20z"/>
</g>
</svg>
